<svg xmlns="http://www.w3.org/2000/svg" viewBox="0 0 131.27 196.51"><defs><style>.cls-1{fill:#024a6a;}.cls-2{fill:#e94550;}.cls-3{fill:#fff;}.cls-4{fill:#ffdaaf;}.cls-5{fill:#fee4c5;}.cls-6{fill:#02628d;}.cls-7{fill:#ffd14d;}.cls-8{fill:#4a2e18;}</style></defs><title>Asset 2</title><g id="Layer_2" data-name="Layer 2"><g id="Objects"><rect class="cls-1" x="12.67" y="148.41" width="15.57" height="48.1"/><circle class="cls-1" cx="20.45" cy="148.41" r="7.79"/><rect class="cls-1" x="99.83" y="148.41" width="15.57" height="48.1"/><circle class="cls-1" cx="107.62" cy="148.41" r="7.79"/><rect class="cls-1" x="20.73" y="140.62" width="86.89" height="55.89"/><rect class="cls-2" x="24.33" y="140.62" width="17.17" height="55.89"/><rect class="cls-2" x="86.77" y="140.62" width="17.17" height="55.89"/><path class="cls-3" d="M64.17,140.62H43.4s.51,30.65,20.78,36.94c20.26-6.3,20.78-36.94,20.78-36.94Z"/><circle class="cls-4" cx="20.73" cy="91.34" r="12.15"/><circle class="cls-4" cx="107.62" cy="91.34" r="12.15"/><path class="cls-5" d="M64.17,23.1A43.44,43.44,0,0,0,20.73,66.55v36.94a43.44,43.44,0,1,0,86.89,0V66.55A43.44,43.44,0,0,0,64.17,23.1Z"/><path class="cls-1" d="M127.76,20.29,64.43,0a.84.84,0,0,0-.51,0L.58,20.29a.82.82,0,0,0-.58.8v2H0a.82.82,0,0,1,.58-.8L63.92,2.05a.84.84,0,0,1,.51,0L127.76,22.3a.82.82,0,0,1,.58.8h0v-2A.82.82,0,0,0,127.76,20.29Z"/><path class="cls-6" d="M127.76,22.3,64.43,2.05a.84.84,0,0,0-.51,0L.58,22.3a.84.84,0,0,0,0,1.6L63.92,44.15a.84.84,0,0,0,.51,0L127.76,23.9a.84.84,0,0,0,0-1.6Z"/><path class="cls-7" d="M112.15,71.06a10.5,10.5,0,0,0-6.65-18.62,10.5,10.5,0,0,0-16.42-8.67,10.5,10.5,0,0,0-20.34-.83,10.4,10.4,0,0,0-8.9,0,10.5,10.5,0,0,0-20.34.83,10.5,10.5,0,0,0-16.42,8.67,10.5,10.5,0,0,0-6.65,18.62,10.5,10.5,0,1,0,13.3,0,10.48,10.48,0,0,0,3.85-8.12,10.5,10.5,0,0,0,10.28-8.36,10.45,10.45,0,0,0,10.37.83,10.49,10.49,0,0,0,20.13,0,10.45,10.45,0,0,0,10.37-.83A10.5,10.5,0,0,0,95,62.94a10.48,10.48,0,0,0,3.85,8.12,10.5,10.5,0,1,0,13.29,0Z"/><rect class="cls-6" x="23.08" y="23.1" width="82.18" height="29.34"/><path class="cls-1" d="M129.28,55.55h-1.87V20.38a.94.94,0,0,1,.94-.94h0a.94.94,0,0,1,.94.94Z"/><circle class="cls-1" cx="128.34" cy="51.39" r="1.91"/><path class="cls-1" d="M131.27,76.22h-5.86l.93-20.59a2,2,0,0,1,2-1.91h0a2,2,0,0,1,2,1.91Z"/><ellipse class="cls-4" cx="37.24" cy="102.29" rx="9.56" ry="4.01"/><ellipse class="cls-4" cx="91.1" cy="102.29" rx="9.56" ry="4.01"/><path class="cls-8" d="M85,112.1a20.79,20.79,0,0,1-41.57,0c0-5.74,1.75-5.8,20.78-5.8S85,106.36,85,112.1Z"/><path class="cls-8" d="M92.53,91.34c0,2.68-2.17-1.1-4.85-1.1s-4.85,3.78-4.85,1.1a4.85,4.85,0,0,1,9.69,0Z"/><path class="cls-8" d="M45.51,91.34c0,2.68-2.17-1.1-4.85-1.1s-4.85,3.78-4.85,1.1a4.85,4.85,0,0,1,9.69,0Z"/></g></g></svg>